<svg width="96" height="96" xmlns="http://www.w3.org/2000/svg" xmlns:xlink="http://www.w3.org/1999/xlink" xml:space="preserve" overflow="hidden"><g transform="translate(-495 -203)"><path d="M539.9 275.4C539.4 275.4 538.8 275.3 538.4 274.9 537.6 274.2 537.5 272.9 538.2 272.1L542.1 267.6C542.8 266.8 544.1 266.7 544.9 267.4 545.7 268.1 545.8 269.4 545.1 270.2L541.2 274.7C540.9 275.1 540.4 275.3 539.9 275.4Z"/><path d="M533.8 273.1C533.1 273.2 532.5 273 531.9 272.5 530.9 271.6 530.8 270 531.7 269L536.3 263.7C537.2 262.7 538.8 262.6 539.8 263.5 540.8 264.4 540.9 266 540 267L535.4 272.3C535 272.8 534.4 273.1 533.8 273.1Z"/><path d="M527.5 269.4C526.7 269.5 525.9 269.2 525.3 268.7 524.1 267.6 523.9 265.7 525 264.5L529.6 259.2C530.7 258 532.6 257.8 533.8 258.9 535 260 535.2 261.9 534.1 263.1L529.5 268.4C529 269 528.2 269.4 527.5 269.4Z"/><path d="M520.2 265.7C519.4 265.8 518.6 265.5 518 265 516.8 263.9 516.6 262 517.7 260.8L523 254.8C524.1 253.6 526 253.4 527.2 254.5 528.4 255.6 528.6 257.5 527.5 258.7L522.2 264.7C521.6 265.3 520.9 265.6 520.2 265.7Z"/><path d="M499.6 243.7 507.3 248.4C508.2 249 509.5 248.7 510 247.7L519.3 232.3C519.9 231.4 519.6 230.1 518.6 229.6L511 224.9 499.6 243.7Z"/><path d="M564.4 256.8 548.3 243 547.2 242 540.3 249.9C539.3 251.1 537.9 251.8 536.3 251.9 536.1 251.9 535.9 251.9 535.8 251.9 534.3 251.9 532.9 251.4 531.9 250.4 529.4 248.2 529.2 244.4 531.3 241.9L537.2 235.1C532.6 234.5 526.7 236.9 520.6 233.9L511.9 248.3 518.7 256.2 521.3 253.2C522.2 252.1 523.6 251.5 525.1 251.5L525.1 251.5C526.3 251.5 527.5 251.9 528.4 252.7 529.5 253.6 530 254.9 530.1 256.3 530.6 256.1 531.2 256 531.8 256 533 256 534.2 256.4 535.1 257.2 536.2 258.2 536.8 259.5 536.8 260.9 537.2 260.8 537.7 260.7 538.1 260.7L538.1 260.7C539.2 260.7 540.2 261.1 541.1 261.8 542 262.6 542.5 263.7 542.6 264.9 542.9 264.8 543.3 264.7 543.7 264.7L543.7 264.7C544.7 264.7 545.6 265 546.3 265.7 547.1 266.4 547.6 267.4 547.7 268.4 547.8 269.5 547.4 270.5 546.7 271.3L543.3 275.2 544.7 276.3C545.4 276.7 546.2 277 547.1 276.9 549.3 276.7 550.9 274.8 550.7 272.6 550.7 272.6 550.7 272.5 550.7 272.5 551 272.6 551.4 272.6 551.7 272.6 553.9 272.4 555.5 270.5 555.3 268.3 555.3 268.3 555.3 268.2 555.3 268.2 555.6 268.3 556 268.3 556.3 268.3 558.5 268.1 560.1 266.2 559.9 264 559.9 263.8 559.8 263.6 559.8 263.4 560.4 263.7 561.1 263.9 561.9 263.8 564.1 263.6 565.7 261.7 565.5 259.5 565.6 258.4 565.1 257.5 564.4 256.8Z"/><path d="M586.4 243.7 578.7 248.4C577.8 249 576.5 248.7 576 247.7L566.7 232.3C566.1 231.4 566.4 230.1 567.4 229.6L575.1 224.9 586.4 243.7Z"/><path d="M565.5 234.3C557.2 237.3 551.2 234.4 544.5 233.1 544.4 233.1 544 233 544 233 542.8 232.9 541.5 233.3 540.6 234.3L532.7 243.3C531.2 245 531.4 247.5 533.1 248.9 534 249.6 535 250 536.1 249.9 537.1 249.8 538.1 249.4 538.8 248.5 538.8 248.5 547 239.1 547 239.1L565.7 255.2 565.7 255.2 565.7 255.2C566.2 255.7 566.4 255.9 566.8 256.5L574 248.2 565.5 234.3Z"/></g></svg>