<svg width="96" height="96" xmlns="http://www.w3.org/2000/svg" xmlns:xlink="http://www.w3.org/1999/xlink" xml:space="preserve" overflow="hidden"><g transform="translate(-1313 -193)"><path d="M1352.5 237.6C1352.5 242.571 1348.47 246.6 1343.5 246.6 1338.53 246.6 1334.5 242.571 1334.5 237.6 1334.5 232.629 1338.53 228.6 1343.5 228.6 1348.47 228.6 1352.5 232.629 1352.5 237.6Z"/><path d="M1385.5 281 1385.5 272C1385.54 270.575 1384.86 269.225 1383.7 268.4 1381.11 266.372 1378.11 264.939 1374.9 264.2 1372.5 263.478 1370.01 263.074 1367.5 263 1364.99 263.008 1362.49 263.413 1360.1 264.2 1356.94 265.065 1353.96 266.487 1351.3 268.4 1350.17 269.254 1349.51 270.585 1349.5 272L1349.5 281Z"/><path d="M1376.5 251.6C1376.5 256.571 1372.47 260.6 1367.5 260.6 1362.53 260.6 1358.5 256.571 1358.5 251.6 1358.5 246.629 1362.53 242.6 1367.5 242.6 1372.47 242.6 1376.5 246.629 1376.5 251.6Z"/><path d="M1348.9 265.2 1348.9 265.2C1351.71 263.196 1354.81 261.644 1358.1 260.6 1355.83 258.23 1354.54 255.084 1354.5 251.8L1354.5 251.4C1353.33 250.91 1352.13 250.509 1350.9 250.2 1348.5 249.478 1346.01 249.074 1343.5 249 1340.99 249.008 1338.49 249.413 1336.1 250.2 1332.97 251.15 1330.01 252.565 1327.3 254.4 1326.14 255.225 1325.46 256.575 1325.5 258L1325.5 267 1347.1 267C1347.6 266.304 1348.2 265.696 1348.9 265.2Z"/><path d="M1394.35 201 1356.58 201C1355.42 201.011 1354.49 201.954 1354.5 203.11L1354.5 228.86C1354.48 230.02 1355.4 230.978 1356.56 231 1356.57 231 1356.57 231 1356.58 231L1362.58 231 1362.58 239.44 1370.87 231 1394.35 231C1395.51 230.989 1396.44 230.048 1396.44 228.89L1396.44 203.11C1396.44 201.952 1395.51 201.011 1394.35 201ZM1375.29 227.25C1374.06 227.25 1373.07 226.256 1373.07 225.03 1373.07 223.804 1374.06 222.81 1375.29 222.81 1376.5 222.81 1377.49 223.786 1377.51 225 1377.53 226.22 1376.56 227.228 1375.34 227.25 1375.32 227.25 1375.31 227.25 1375.29 227.25ZM1376.72 218.1 1376.72 221.25 1373.87 221.25 1373.87 215.36 1375.29 215.36C1377.77 215.36 1379.37 213.91 1379.37 211.68 1379.41 209.471 1377.65 207.649 1375.44 207.61 1375.39 207.609 1375.34 207.609 1375.29 207.61 1373.23 207.419 1371.41 208.931 1371.22 210.988 1371.2 211.218 1371.2 211.45 1371.22 211.68L1371.22 211.93 1368.37 211.93 1368.37 211.68C1368.15 208.069 1370.91 204.967 1374.52 204.751 1374.77 204.735 1375.03 204.735 1375.29 204.75 1379.07 204.706 1382.18 207.736 1382.22 211.519 1382.22 211.573 1382.22 211.626 1382.22 211.68 1382.32 214.918 1379.93 217.699 1376.72 218.1Z"/></g></svg>