<svg width="96" height="96" xmlns="http://www.w3.org/2000/svg" xmlns:xlink="http://www.w3.org/1999/xlink" xml:space="preserve" overflow="hidden"><g transform="translate(-538 -567)"><path d="M586 577C565 577 548 594 548 615 548 636 565 653 586 653 607 653 624 636 624 615 624 594 607 577 586 577ZM586 649C567.3 649 552 633.7 552 615 552 596.3 567.3 581 586 581 590.9 581 595.5 582 599.7 583.9L596.5 586.5C596.1 586.8 595.7 587 595.2 587L593.3 587C593.1 587 592.8 587 592.6 586.9 592.6 586.9 587.7 584 584.9 584 582.2 584 577.8 585.7 575.9 587 573 588.9 576.1 589.8 576.8 590 576.9 590 577 590 577 590L579.8 590C580.5 590 581.1 589.7 581.5 589.1L582.6 587.4C582.8 587.1 583.1 587 583.4 587L585 587 582.9 590.5C582.4 591.4 581.4 592 580.3 592L577.6 592C577.2 592 576.8 592.1 576.5 592.3L574 594 572 594C571.4 594 571 594.4 571 595L571 596C571 596.6 570.6 597 570 597L569.1 597C568.4 597 567.8 597.3 567.4 597.9L566.2 599.8C566.1 600 566 600.2 566 600.4L566 601C566 601.6 566.4 602 567 602L570.6 602C570.9 602 571.1 601.9 571.3 601.7L574.4 598.6C574.8 598.2 575.3 598 575.8 598L576.2 598C576.7 598 577.1 598.3 577.2 598.8L577.8 601.3C577.9 601.7 578.3 602.1 578.8 602.1L579 602.1C579.6 602.1 580 601.7 580 601.1L580 598.5C580 598.2 580.1 598 580.3 597.8L581 597 581.8 599.3C581.9 599.7 582.3 600 582.7 600L583.6 600C583.9 600 584.1 599.9 584.3 599.7L584.7 599.3C584.9 599.1 585.1 599 585.4 599L586 599C586.6 599 587 599.4 587 600L587 601C587 601.6 587.4 602 588 602L591.6 602C592.3 602 592.8 602.7 592.5 603.3L592.2 604.2C592 604.7 591.6 605 591.1 604.9L586.3 604.1C586.1 604.1 585.8 604.1 585.6 604.1L581.5 604.9C581.1 605 580.8 604.9 580.4 604.8 579.1 604.3 575.5 603 574 603 562.1 603 562 611 562 614 562 618 564.3 621 568 621 572.4 621 578 620.8 578 629L578 635.2C578 636.4 578.4 637.5 579.2 638.4L582.1 641.9C582.7 642.6 583.5 643 584.4 643L586.8 643C587.6 643 588.4 642.7 588.9 642.1L591.3 639.7C591.8 639.2 592.1 638.7 592.4 638.1L594.4 634C594.7 633.3 594.9 632.5 594.9 631.8L594.9 627.2C594.9 626.4 595.2 625.6 595.8 625.1L601.1 619.8C601.5 619.4 601.5 618.6 601 618.3 601 618.3 595 614.9 591.7 608.5 591.4 607.8 591.8 607 592.6 607L593 607 598.7 614.4C599.4 615.3 600.7 615.4 601.6 614.7L604.9 611.9C605.4 611.5 605.4 610.6 604.8 610.3L601.8 608.5C601.4 608.2 601.2 607.7 601.4 607.2L601.5 607C601.8 606.5 602.4 606.3 602.9 606.6L606.5 608.8C606.8 609 607.2 609.1 607.5 609.1L608.6 609.1C609.4 609.1 610.1 609.6 610.4 610.3L613.3 616.9C613.6 617.6 614.3 618.1 615.1 618.1L615.1 618.1C616 618.1 616.8 617.3 616.8 616.4L616.8 613.6C616.8 613.3 616.9 613 617.2 612.8L619.5 611C619.7 612.3 619.8 613.7 619.8 615.1 620 633.7 604.7 649 586 649Z"/><path d="M568 594 568 595 569 595C569.6 595 570 594.6 570 594L570 593 571 593 571 591.4C571 591.1 570.9 590.9 570.7 590.7L569.7 589.7C569.3 589.3 568.7 589.3 568.3 589.7L566.7 591.3C566.3 591.7 566.3 592.3 566.7 592.7L568 594Z"/></g></svg>