<svg width="96" height="96" xmlns="http://www.w3.org/2000/svg" xmlns:xlink="http://www.w3.org/1999/xlink" xml:space="preserve" overflow="hidden"><g transform="translate(-927 -596)"><path d="M969 623 985 623 985 620C985 617.8 983.2 616 981 616L939 616C936.8 616 935 617.8 935 620L935 647C935 649.2 936.8 651 939 651L945 651 945 661 955 651 961 651 961 631C961 626.6 964.6 623 969 623Z"/><path d="M1011 627 969 627C966.8 627 965 628.8 965 631L965 658C965 660.2 966.8 662 969 662L995 662 1005 672 1005 662 1011 662C1013.2 662 1015 660.2 1015 658L1015 631C1015 628.8 1013.2 627 1011 627Z"/></g></svg>