<svg width="96" height="96" xmlns="http://www.w3.org/2000/svg" xmlns:xlink="http://www.w3.org/1999/xlink" xml:space="preserve" overflow="hidden"><g transform="translate(-1340 -497)"><path d="M1361 529.19C1363.76 529.19 1366 526.951 1366 524.19 1366 521.429 1363.76 519.19 1361 519.19 1358.24 519.19 1356 521.429 1356 524.19 1356 526.951 1358.24 529.19 1361 529.19Z"/><path d="M1367.52 540.52C1367.95 540.831 1368.47 540.999 1369 541L1376 541C1377.38 541 1378.5 539.881 1378.5 538.5 1378.5 537.119 1377.38 536 1376 536L1369.82 536 1365.06 532.51C1364.02 531.082 1362.3 530.319 1360.54 530.51 1357.95 530.832 1356.02 533.053 1356.07 535.66L1356.07 550C1356.07 552.761 1358.31 555 1361.07 555L1366 555 1366 555 1372 555 1372 567.72C1372 569.101 1373.12 570.22 1374.5 570.22 1375.88 570.22 1377 569.101 1377 567.72L1377 552.47C1377 551.089 1375.88 549.97 1374.5 549.97L1366 549.97 1366 539.39Z"/><path d="M1415 529.19C1417.76 529.19 1420 526.951 1420 524.19 1420 521.429 1417.76 519.19 1415 519.19 1412.24 519.19 1410 521.429 1410 524.19 1410 526.951 1412.24 529.19 1415 529.19Z"/><path d="M1415.46 530.46C1413.7 530.269 1411.98 531.032 1410.94 532.46L1406.18 536 1400 536C1398.62 536 1397.5 537.119 1397.5 538.5 1397.5 539.881 1398.62 541 1400 541L1407 541C1407.53 540.999 1408.05 540.831 1408.48 540.52L1410 539.39 1410 550 1401.53 550C1400.15 550 1399.03 551.119 1399.03 552.5L1399.03 567.72C1399.03 569.101 1400.15 570.22 1401.53 570.22 1402.91 570.22 1404.03 569.101 1404.03 567.72L1404.03 555 1410.03 555 1410.03 555 1414.91 555C1417.67 555 1419.91 552.761 1419.91 550L1419.91 535.61C1419.96 533.01 1418.04 530.791 1415.46 530.46Z"/><path d="M1405 543 1371 543C1369.9 543 1369 543.895 1369 545 1369 546.105 1369.9 547 1371 547L1386 547 1386 567 1380 567 1380 571 1396 571 1396 567 1390 567 1390 547 1405 547C1406.1 547 1407 546.105 1407 545 1407 543.895 1406.1 543 1405 543Z"/><path d="M1368 557 1354 557 1354 537C1354 535.895 1353.1 535 1352 535 1350.9 535 1350 535.895 1350 537L1350 559C1350 560.105 1350.9 561 1352 561L1358 561 1358 567 1354 567 1354 571 1366 571 1366 567 1362 567 1362 561 1368 561C1369.1 561 1370 560.105 1370 559 1370 557.895 1369.1 557 1368 557Z"/><path d="M1424 535.5C1422.9 535.5 1422 536.395 1422 537.5L1422 557 1408 557C1406.9 557 1406 557.895 1406 559 1406 560.105 1406.9 561 1408 561L1414 561 1414 567 1410 567 1410 571 1422 571 1422 567 1418 567 1418 561 1424 561C1425.1 561 1426 560.105 1426 559L1426 537.5C1426 536.395 1425.1 535.5 1424 535.5Z"/></g></svg>